<svg width="48" height="48" viewBox="0 0 48 48" fill="none" xmlns="http://www.w3.org/2000/svg">
<path d="M48 24C48 37.2548 37.2548 48 24 48C10.7452 48 0 37.2548 0 24C0 10.7452 10.7452 0 24 0C37.2548 0 48 10.7452 48 24Z" fill="black"/>
<path d="M24.0544 35C21.7336 35 19.57 33.9596 17.5635 31.8789C14.9082 29.1254 11 23.5077 11 19.4625C11 17.5776 11.411 16.0354 12.2329 14.8359C13.0549 13.612 14.2757 13 15.8954 13C19.084 13 23.1314 16.721 24.0544 19.4625C25.1187 16.8925 28.9768 13 32.1046 13C33.7243 13 34.9451 13.5875 35.7671 14.7625C36.589 15.9375 37 17.5041 37 19.4625C37 23.5179 33.1733 29.1161 30.5091 31.8789C28.5267 33.9596 26.3752 35 24.0544 35Z" fill="white"/>
<path d="M30.6642 23.105C31.3156 23.8313 31.6075 24.6807 31.5397 25.6532C31.4719 26.6258 31.0117 27.4945 30.1592 28.2592C29.3366 29.0256 28.431 29.382 27.4427 29.3284C26.4685 29.2905 25.6556 28.9084 25.0042 28.1822C24.3528 27.456 24.0609 26.6065 24.1287 25.634C24.1965 24.6614 24.6489 23.7998 25.4856 23.0492C26.3381 22.2844 27.2516 21.921 28.2257 21.9588C29.1999 21.9967 30.0127 22.3788 30.6642 23.105Z" fill="#FF9700"/>
</svg>
