<svg xmlns="http://www.w3.org/2000/svg" width="1160" height="35" fill="none" viewBox="0 0 1160 35"><path fill="#fff" d="M0 35c44 0 73.243-7.84 114.607-8.147 41.355-.307 82.517 2.31 123.856 2.924 34.393.509 69.641-.441 101.455-5.982C383.659 16.173 421.171-.01 468.49 0c67.448.02 120.319 33.344 186.679 28.253 24.925-1.917 47.182-9.251 72.509-8.954 34.232.402 62.098 14.677 96.241 13.565 25.255-.815 44.506-9.808 68.319-13.46 22.225-3.413 46.779-1.956 70.156-.45 32.669 2.099 65.336 4.198 98.016 6.288C1104.5 28.062 1134 35 1160 35z"/></svg>