<svg xmlns="http://www.w3.org/2000/svg" width="48" height="48" fill="none" viewBox="0 0 48 48"><path fill="#ff9700" d="M19 44q-2.95 0-4.975-2.025T12 37q0-.45.125-.7t-.025-.4-.4-.025T11 36q-2.95 0-4.975-2.025T4 29t2.025-4.975T11 22q1.15 0 2.1.3t1.8.9l8.3-8.3q-.6-.85-.9-1.8T22 11q0-2.95 2.025-4.975T29 4t4.975 2.025T36 11q0 .45-.125.7t.025.4.4.025T37 12q2.95 0 4.975 2.025T44 19t-2.025 4.975T37 26q-1.15 0-2.1-.3t-1.8-.9l-8.3 8.3q.6.85.9 1.8T26 37q0 2.95-2.025 4.975T19 44m0-4q1.3 0 2.15-.85T22 37q0-.45-.125-.875a3.3 3.3 0 0 0-.375-.825q-.85-1.2-.7-2.575T22 30.3l8.3-8.3q1.05-1.05 2.425-1.2t2.575.7q.4.25.825.375T37 22q1.3 0 2.15-.85T40 19t-.85-2.15T37 16q-1.75 0-2.45-.175T33.1 14.9t-.925-1.45T32 11q0-1.3-.85-2.15T29 8t-2.15.85T26 11q0 .55.1.925t.4.775q.85 1.2.7 2.575T26 17.7L17.7 26q-1.05 1.05-2.425 1.2t-2.575-.7a3.3 3.3 0 0 0-.825-.375A3 3 0 0 0 11 26q-1.3 0-2.15.85T8 29t.85 2.15T11 32q1.75 0 2.45.175t1.45.925.925 1.45T16 37q0 1.3.85 2.15T19 40"/></svg>