<svg xmlns="http://www.w3.org/2000/svg" width="48" height="48" fill="none" viewBox="0 0 48 48"><path fill="#ff9700" d="M10 48v-2q0-6.95 2.9-11.275t8-8.725q-5.1-4.4-8-8.725T10 6V4h4v2a20 20 0 0 0 .1 2h19.8q.05-.5.075-.975T34 6V4h4v2q0 6.95-2.9 11.275T27.1 26q5.1 4.4 8 8.725T38 46v2h-4v-2a20 20 0 0 0-.1-2H14.1q-.05.5-.075.975T14 46v2zm6.9-32h14.2a16 16 0 0 0 1.125-1.9q.475-.95.875-2.1H14.9q.4 1.1.875 2.075T16.9 16m7.1 7.4q1-.85 1.95-1.7a45 45 0 0 0 1.8-1.7h-7.5a45 45 0 0 0 1.8 1.7q.95.85 1.95 1.7M20.25 32h7.5a45 45 0 0 0-1.8-1.7A102 102 0 0 0 24 28.6q-1 .85-1.95 1.7a45 45 0 0 0-1.8 1.7m-5.35 8h18.2a22 22 0 0 0-.875-2.075A15 15 0 0 0 31.1 36H16.9a16 16 0 0 0-1.125 1.9A18 18 0 0 0 14.9 40"/></svg>