<svg width="26" height="26" viewBox="0 0 26 26" fill="none" xmlns="http://www.w3.org/2000/svg">
<path d="M20.6678 5.28178C19.6702 4.27448 18.4819 3.47592 17.1724 2.93269C15.8629 2.38946 14.4583 2.11242 13.0406 2.11775C7.10027 2.11775 2.259 6.95765 2.25356 12.8994C2.25356 14.8024 2.75143 16.6538 3.69139 18.2929L2.1665 23.8824L7.88515 22.3833C9.46647 23.2461 11.2393 23.6974 13.0406 23.696H13.0461C18.9878 23.696 23.8277 18.8561 23.8332 12.9089C23.8344 11.4916 23.5552 10.088 23.0117 8.779C22.4682 7.47001 21.6725 6.28145 20.6678 5.28178ZM13.0406 21.8705C11.4344 21.8692 9.85788 21.437 8.47552 20.619L8.14905 20.4231L4.75649 21.3128L5.66244 18.0032L5.45024 17.6618C4.55219 16.2339 4.07723 14.5807 4.08043 12.8939C4.08043 7.96155 8.1028 3.93782 13.0461 3.93782C14.2237 3.9357 15.3902 4.16672 16.4781 4.61754C17.5661 5.06836 18.554 5.73008 19.385 6.56453C20.2187 7.39587 20.8797 8.38398 21.3298 9.47191C21.7799 10.5598 22.0103 11.7261 22.0077 12.9035C22.0022 17.8536 17.9798 21.8705 13.0406 21.8705ZM17.9581 15.1588C17.6901 15.0242 16.3665 14.3726 16.1176 14.2801C15.87 14.1917 15.6891 14.1454 15.5123 14.4148C15.3314 14.6827 14.8145 15.2935 14.6594 15.469C14.5043 15.6499 14.3438 15.6703 14.0745 15.537C13.8065 15.401 12.9373 15.118 11.9089 14.1971C11.1063 13.483 10.569 12.5988 10.4085 12.3308C10.2534 12.0615 10.3935 11.9173 10.5282 11.7826C10.6465 11.6629 10.7962 11.467 10.9308 11.3119C11.0669 11.1569 11.1118 11.0426 11.2002 10.863C11.2886 10.6808 11.2464 10.5257 11.1798 10.391C11.1118 10.2564 10.5744 8.92735 10.3473 8.3914C10.1296 7.86225 9.9079 7.9357 9.74195 7.9289C9.58687 7.91938 9.40595 7.91938 9.22504 7.91938C9.08843 7.92285 8.95401 7.95449 8.83019 8.0123C8.70637 8.07012 8.59581 8.15287 8.50544 8.25537C8.25787 8.52471 7.56549 9.17628 7.56549 10.5053C7.56549 11.8343 8.53129 13.1116 8.66732 13.2925C8.80063 13.4734 10.5636 16.1926 13.2692 17.3625C13.9085 17.6414 14.4118 17.8059 14.8049 17.9311C15.4511 18.1379 16.0346 18.1066 16.4999 18.0399C17.0168 17.961 18.0928 17.387 18.3199 16.7572C18.543 16.126 18.543 15.5873 18.475 15.4744C18.4083 15.3602 18.2274 15.2935 17.9581 15.1588Z" fill="#FFD400"/>
</svg>
