<svg width="26" height="26" viewBox="0 0 26 26" fill="none" xmlns="http://www.w3.org/2000/svg">
<path d="M12.9998 2.1665C10.0599 2.1665 9.69025 2.18005 8.53515 2.2315C7.38005 2.28567 6.59327 2.46713 5.904 2.73525C5.18067 3.00653 4.52565 3.43319 3.98515 3.98515C3.43319 4.52565 3.00653 5.18067 2.73525 5.904C2.46713 6.59192 2.28432 7.38004 2.2315 8.53109C2.18005 9.6889 2.1665 10.0572 2.1665 13.0012C2.1665 15.9424 2.18005 16.3108 2.2315 17.4659C2.28567 18.6196 2.46713 19.4064 2.73525 20.0957C3.01286 20.808 3.38255 21.4119 3.98515 22.0145C4.5864 22.6171 5.19036 22.9882 5.90265 23.2644C6.59327 23.5325 7.37869 23.7154 8.53244 23.7682C9.6889 23.8196 10.0572 23.8332 12.9998 23.8332C15.9424 23.8332 16.3094 23.8196 17.4659 23.7682C18.6183 23.714 19.4078 23.5325 20.097 23.2644C20.8199 22.993 21.4744 22.5663 22.0145 22.0145C22.6171 21.4119 22.9868 20.808 23.2644 20.0957C23.5312 19.4064 23.714 18.6196 23.7682 17.4659C23.8196 16.3108 23.8332 15.9424 23.8332 12.9998C23.8332 10.0572 23.8196 9.6889 23.7682 8.53244C23.714 7.38005 23.5312 6.59192 23.2644 5.904C22.9931 5.18067 22.5665 4.52565 22.0145 3.98515C21.474 3.43319 20.819 3.00653 20.0957 2.73525C19.405 2.46713 18.6169 2.28432 17.4645 2.2315C16.3081 2.18005 15.9411 2.1665 12.9971 2.1665H12.9998ZM12.0289 4.11921H13.0012C15.8937 4.11921 16.2363 4.12869 17.3779 4.1815C18.4341 4.2289 19.0083 4.4063 19.3901 4.5539C19.8953 4.75025 20.2568 4.98588 20.636 5.36505C21.0151 5.74421 21.2494 6.10442 21.4458 6.61088C21.5947 6.9914 21.7708 7.56557 21.8182 8.62182C21.871 9.76338 21.8818 10.106 21.8818 12.9971C21.8818 15.8883 21.871 16.2322 21.8182 17.3738C21.7708 18.43 21.5934 19.0029 21.4458 19.3847C21.2709 19.8545 20.9938 20.2796 20.6346 20.6292C20.2555 21.0084 19.8953 21.2426 19.3888 21.439C19.0096 21.588 18.4355 21.764 17.3779 21.8128C16.2363 21.8642 15.8937 21.8764 13.0012 21.8764C10.1087 21.8764 9.76473 21.8642 8.62317 21.8128C7.56692 21.764 6.99411 21.588 6.61223 21.439C6.14211 21.2647 5.71658 20.9881 5.3664 20.6292C5.00656 20.2793 4.72903 19.8538 4.5539 19.3834C4.4063 19.0029 4.2289 18.4287 4.1815 17.3724C4.13005 16.2309 4.11921 15.8883 4.11921 12.9944C4.11921 10.1006 4.13005 9.76067 4.1815 8.61911C4.23025 7.56286 4.4063 6.98869 4.55525 6.60682C4.75161 6.10171 4.98723 5.74015 5.3664 5.36098C5.74557 4.98182 6.10577 4.74755 6.61223 4.55119C6.99411 4.40223 7.56692 4.22619 8.62317 4.17744C9.62255 4.1314 10.0098 4.11786 12.0289 4.1165V4.11921ZM18.7835 5.91755C18.6128 5.91755 18.4437 5.95117 18.286 6.0165C18.1283 6.08183 17.985 6.17759 17.8642 6.29831C17.7435 6.41902 17.6478 6.56233 17.5824 6.72006C17.5171 6.87778 17.4835 7.04683 17.4835 7.21755C17.4835 7.38826 17.5171 7.55731 17.5824 7.71503C17.6478 7.87276 17.7435 8.01607 17.8642 8.13678C17.985 8.2575 18.1283 8.35326 18.286 8.41859C18.4437 8.48392 18.6128 8.51755 18.7835 8.51755C19.1283 8.51755 19.4589 8.38058 19.7027 8.13678C19.9465 7.89299 20.0835 7.56233 20.0835 7.21755C20.0835 6.87276 19.9465 6.5421 19.7027 6.29831C19.4589 6.05451 19.1283 5.91755 18.7835 5.91755ZM13.0012 7.43692C12.2633 7.42541 11.5304 7.56081 10.8453 7.83524C10.1602 8.10967 9.53658 8.51764 9.01067 9.03541C8.48476 9.55318 8.0671 10.1704 7.78202 10.8511C7.49693 11.5319 7.35012 12.2625 7.35012 13.0005C7.35012 13.7385 7.49693 14.4692 7.78202 15.1499C8.0671 15.8306 8.48476 16.4478 9.01067 16.9656C9.53658 17.4834 10.1602 17.8914 10.8453 18.1658C11.5304 18.4402 12.2633 18.5756 13.0012 18.5641C14.4617 18.5413 15.8547 17.9451 16.8795 16.9042C17.9043 15.8633 18.4787 14.4612 18.4787 13.0005C18.4787 11.5398 17.9043 10.1377 16.8795 9.09679C15.8547 8.05589 14.4617 7.45971 13.0012 7.43692ZM13.0012 9.38827C13.4755 9.38827 13.9451 9.48169 14.3833 9.66319C14.8215 9.84469 15.2196 10.1107 15.555 10.4461C15.8903 10.7814 16.1563 11.1796 16.3378 11.6178C16.5193 12.0559 16.6128 12.5256 16.6128 12.9998C16.6128 13.4741 16.5193 13.9437 16.3378 14.3819C16.1563 14.8201 15.8903 15.2182 15.555 15.5536C15.2196 15.889 14.8215 16.155 14.3833 16.3365C13.9451 16.518 13.4755 16.6114 13.0012 16.6114C12.0433 16.6114 11.1247 16.2309 10.4474 15.5536C9.77013 14.8763 9.38963 13.9577 9.38963 12.9998C9.38963 12.042 9.77013 11.1234 10.4474 10.4461C11.1247 9.76878 12.0433 9.38827 13.0012 9.38827Z" fill="#FFD400"/>
</svg>
