<svg xmlns="http://www.w3.org/2000/svg" width="32" height="32" fill="none" viewBox="0 0 32 32"><path fill="#161000" d="M27.325 4.652a15.8 15.8 0 0 0-5.162-3.454A15.8 15.8 0 0 0 16.06 0C7.287 0 .137 7.116.13 15.852c0 2.798.735 5.52 2.123 7.93L0 32l8.446-2.204a15.9 15.9 0 0 0 7.614 1.93h.008c8.776 0 15.924-7.116 15.932-15.86a15.7 15.7 0 0 0-1.213-6.072 15.8 15.8 0 0 0-3.462-5.142M16.06 29.042a13.3 13.3 0 0 1-6.742-1.84l-.482-.288-5.01 1.308 1.337-4.866-.313-.502a13.1 13.1 0 0 1-2.023-7.01c0-7.252 5.94-13.168 13.241-13.168 1.74-.003 3.462.337 5.07 1a13.2 13.2 0 0 1 4.292 2.862 13.1 13.1 0 0 1 2.873 4.275 13.1 13.1 0 0 1 1 5.045c-.007 7.278-5.948 13.184-13.243 13.184m7.263-9.868c-.396-.198-2.35-1.156-2.718-1.292-.366-.13-.633-.198-.894.198-.267.394-1.03 1.292-1.26 1.55-.229.266-.466.296-.864.1-.396-.2-1.68-.616-3.198-1.97-1.186-1.05-1.98-2.35-2.216-2.744-.23-.396-.022-.608.177-.806.174-.176.395-.464.594-.692.201-.228.267-.396.398-.66.13-.268.068-.496-.03-.694-.1-.198-.894-2.152-1.23-2.94-.321-.778-.649-.67-.894-.68-.229-.014-.496-.014-.763-.014a1.47 1.47 0 0 0-1.063.494c-.366.396-1.388 1.354-1.388 3.308S9.4 16.164 9.6 16.43c.197.266 2.8 4.264 6.797 5.984.944.41 1.687.652 2.268.836.954.304 1.816.258 2.503.16.764-.116 2.353-.96 2.688-1.886.33-.928.33-1.72.23-1.886-.1-.168-.366-.266-.764-.464"/></svg>