<svg xmlns="http://www.w3.org/2000/svg" width="20" height="14" fill="none" viewBox="0 0 20 14"><path fill="#ffd400" d="M5 14a2.9 2.9 0 0 1-2.125-.875A2.9 2.9 0 0 1 2 11H0V8q0-1.65 1.175-2.825T4 4h4v5h3.5L15 4.65V2h-3V0h3q.824 0 1.413.588Q17 1.175 17 2v3.35L12.5 11H8q0 1.25-.875 2.125A2.9 2.9 0 0 1 5 14m0-2q.424 0 .713-.287A.97.97 0 0 0 6 11H4q0 .424.287.713Q4.576 12 5 12M3 3V1h5v2zm14 11a2.9 2.9 0 0 1-2.125-.875A2.9 2.9 0 0 1 14 11q0-1.25.875-2.125A2.9 2.9 0 0 1 17 8q1.25 0 2.125.875T20 11t-.875 2.125A2.9 2.9 0 0 1 17 14m0-2q.424 0 .712-.287A.97.97 0 0 0 18 11a.97.97 0 0 0-.288-.713A.97.97 0 0 0 17 10a.97.97 0 0 0-.712.287A.97.97 0 0 0 16 11q0 .424.288.713.287.287.712.287M2 9h4V6H4q-.824 0-1.412.588A1.93 1.93 0 0 0 2 8z"/></svg>