<svg width="26" height="26" viewBox="0 0 26 26" fill="none" xmlns="http://www.w3.org/2000/svg">
<path d="M13.0002 12.9998C13.596 12.9998 14.1061 12.7877 14.5304 12.3634C14.9547 11.9391 15.1668 11.429 15.1668 10.8332C15.1668 10.2373 14.9547 9.72727 14.5304 9.30296C14.1061 8.87866 13.596 8.6665 13.0002 8.6665C12.4043 8.6665 11.8943 8.87866 11.47 9.30296C11.0456 9.72727 10.8335 10.2373 10.8335 10.8332C10.8335 11.429 11.0456 11.9391 11.47 12.3634C11.8943 12.7877 12.4043 12.9998 13.0002 12.9998ZM13.0002 20.9623C15.2029 18.9401 16.837 17.103 17.9022 15.4509C18.9675 13.7988 19.5002 12.3318 19.5002 11.0498C19.5002 9.08178 18.8727 7.47032 17.6179 6.21546C16.363 4.9606 14.8238 4.33317 13.0002 4.33317C11.1766 4.33317 9.63732 4.9606 8.38245 6.21546C7.12759 7.47032 6.50016 9.08178 6.50016 11.0498C6.50016 12.3318 7.0328 13.7988 8.09808 15.4509C9.16336 17.103 10.7974 18.9401 13.0002 20.9623ZM13.0002 23.8332C10.0932 21.3596 7.92204 19.062 6.48662 16.9405C5.0512 14.8189 4.3335 12.8554 4.3335 11.0498C4.3335 8.3415 5.20468 6.18386 6.94704 4.57692C8.6894 2.96998 10.7071 2.1665 13.0002 2.1665C15.2932 2.1665 17.3109 2.96998 19.0533 4.57692C20.7956 6.18386 21.6668 8.3415 21.6668 11.0498C21.6668 12.8554 20.9491 14.8189 19.5137 16.9405C18.0783 19.062 15.9071 21.3596 13.0002 23.8332Z" fill="#FFD400"/>
</svg>
