<svg width="26" height="26" viewBox="0 0 26 26" fill="none" xmlns="http://www.w3.org/2000/svg">
<path d="M16.5748 18.0915L18.0915 16.5748L14.0832 12.5665V7.58317H11.9165V13.4332L16.5748 18.0915ZM12.9998 23.8332C11.5012 23.8332 10.0929 23.5488 8.77484 22.98C7.45678 22.4113 6.31025 21.6394 5.33525 20.6644C4.36025 19.6894 3.58838 18.5429 3.01963 17.2248C2.45088 15.9068 2.1665 14.4984 2.1665 12.9998C2.1665 11.5012 2.45088 10.0929 3.01963 8.77484C3.58838 7.45678 4.36025 6.31025 5.33525 5.33525C6.31025 4.36025 7.45678 3.58838 8.77484 3.01963C10.0929 2.45088 11.5012 2.1665 12.9998 2.1665C14.4984 2.1665 15.9068 2.45088 17.2248 3.01963C18.5429 3.58838 19.6894 4.36025 20.6644 5.33525C21.6394 6.31025 22.4113 7.45678 22.98 8.77484C23.5488 10.0929 23.8332 11.5012 23.8332 12.9998C23.8332 14.4984 23.5488 15.9068 22.98 17.2248C22.4113 18.5429 21.6394 19.6894 20.6644 20.6644C19.6894 21.6394 18.5429 22.4113 17.2248 22.98C15.9068 23.5488 14.4984 23.8332 12.9998 23.8332ZM12.9998 21.6665C15.4012 21.6665 17.446 20.8224 19.1342 19.1342C20.8224 17.446 21.6665 15.4012 21.6665 12.9998C21.6665 10.5984 20.8224 8.55366 19.1342 6.86546C17.446 5.17727 15.4012 4.33317 12.9998 4.33317C10.5984 4.33317 8.55366 5.17727 6.86546 6.86546C5.17727 8.55366 4.33317 10.5984 4.33317 12.9998C4.33317 15.4012 5.17727 17.446 6.86546 19.1342C8.55366 20.8224 10.5984 21.6665 12.9998 21.6665Z" fill="#FFD400"/>
</svg>
