<svg xmlns="http://www.w3.org/2000/svg" width="48" height="48" fill="none" viewBox="0 0 48 48"><path fill="#ff9700" d="M24 42q-5.85 0-9.925-4.075T10 28q0-4.7 2.775-8.425t7.275-5.025a9.5 9.5 0 0 1-1.95-.725 6.5 6.5 0 0 1-1.7-1.225 7.65 7.65 0 0 1-2.125-3.925 14.8 14.8 0 0 1-.225-4.625 14.8 14.8 0 0 1 4.625.225A7.65 7.65 0 0 1 22.6 6.4 7 7 0 0 1 24.275 9q.525 1.45.675 3.05A17 17 0 0 1 28.6 6.6q.55-.55 1.4-.55t1.4.55.55 1.4-.55 1.4a14.5 14.5 0 0 0-1.95 2.425 10 10 0 0 0-1.25 2.825q4.4 1.4 7.1 5.075T38 28q0 5.85-4.075 9.925T24 42m0-4q4.15 0 7.075-2.925T34 28t-2.925-7.075T24 18t-7.075 2.925T14 28t2.925 7.075T24 38"/></svg>