<svg xmlns="http://www.w3.org/2000/svg" width="48" height="48" fill="none" viewBox="0 0 48 48"><path fill="#ff9700" d="m24 42-2.9-2.6q-5.05-4.55-8.35-7.85T7.5 25.625 4.775 20.8A13.5 13.5 0 0 1 4 16.3q0-4.7 3.15-7.85T15 5.3q2.6 0 4.95 1.1A11.9 11.9 0 0 1 24 9.5a11.9 11.9 0 0 1 4.05-3.1A11.5 11.5 0 0 1 33 5.3q4.7 0 7.85 3.15T44 16.3a13.5 13.5 0 0 1-.775 4.5Q42.45 23 40.5 25.625t-5.25 5.925-8.35 7.85zm0-5.4q4.8-4.3 7.9-7.375t4.9-5.35q1.8-2.276 2.5-4.05T40 16.3q0-3-2-5t-5-2q-2.35 0-4.35 1.325T25.9 14h-3.8q-.75-2.05-2.75-3.375T15 9.3q-3 0-5 2t-2 5q0 1.75.7 3.525t2.5 4.05 4.9 5.35T24 36.6"/></svg>