<svg xmlns="http://www.w3.org/2000/svg" width="112" height="56" fill="none" viewBox="0 0 112 56"><path fill="#000" d="M46.146 32.83c0 12.796-10.33 23.17-23.073 23.17S0 45.626 0 32.83 10.33 9.659 23.073 9.659s23.073 10.374 23.073 23.17"/><path fill="#fff" d="M94.215 42.243a3.13 3.13 0 0 1-3.125 3.137 3.13 3.13 0 0 1-3.124-3.138 3.13 3.13 0 0 1 3.124-3.137 3.13 3.13 0 0 1 3.125 3.138m-33.648 0a3.13 3.13 0 0 1-3.125 3.137 3.13 3.13 0 0 1-3.124-3.138 3.13 3.13 0 0 1 3.124-3.137 3.13 3.13 0 0 1 3.124 3.138m-6.248-20.516h5.287v6.758h-5.287z"/><path fill="#000" d="M54.488.804c.555.56.86 1.27.792 2.092-.017.887-.792 3.065-1.713 4.202a12.5 12.5 0 0 1-3.198 2.801l-4.742 2.911c-.988.607-1.66 1.568-1.946 2.784l-.308 1.307a.5.5 0 0 1-.134.248c-.284.284-.868.159-1.305-.28l-3.442-3.457c-.437-.439-.563-1.026-.28-1.31a.5.5 0 0 1 .248-.135l1.301-.31c1.21-.287 2.168-.962 2.772-1.954l2.899-4.762a12.6 12.6 0 0 1 2.79-3.212c1.131-.924 3.3-1.703 4.183-1.72.819-.067 1.526.238 2.083.795"/><path fill="#fff" d="M23.125 43.45q-3.346 0-6.24-3.014c-2.553-2.658-6.31-8.082-6.31-11.987q0-2.73 1.185-4.467 1.185-1.772 3.521-1.772c3.066 0 6.957 3.592 7.844 6.239 1.023-2.481 4.733-6.24 7.74-6.24q2.335 0 3.52 1.702t1.186 4.538c0 3.915-3.679 9.32-6.24 11.987q-2.86 3.013-6.206 3.013"/><path fill="#ff9700" d="M29.48 31.965q.94 1.053.841 2.46-.097 1.41-1.327 2.517-1.186 1.11-2.611 1.032a3.2 3.2 0 0 1-2.345-1.107 3.22 3.22 0 0 1-.841-2.46q.098-1.408 1.304-2.495 1.23-1.109 2.634-1.053a3.2 3.2 0 0 1 2.345 1.106"/><path fill="#000" d="M56.178 31.842q-2.84 0-4.14-.683-1.298-.684-1.672-2.182-.375-1.498-.375-4.671 0-3.217.353-4.782.375-1.587 1.65-2.336 1.3-.771 4.118-.771 1.695 0 3.456.793 1.762.771 2.972 2.556 1.212 1.785 1.211 4.562 0 2.666-1.233 4.363-1.233 1.674-2.972 2.424-1.74.727-3.368.727m-1.365-3.878q.705.088 1.013.088 1.563 0 2.421-.837.86-.838.859-2.314 0-1.323-.837-2.05-.836-.749-2.355-.749-.573 0-1.101.088zm16.737-.11q1.123.132 1.74.573.638.418.638 1.344 0 .925-.66 1.366-.639.44-1.542.55-.903.09-2.334.089-1.409 0-2.311-.088-.903-.11-1.541-.551-.639-.441-.639-1.366 0-.904.595-1.323.615-.44 1.673-.594-.11-1.278-.11-3.658 0-2.138.088-3.438-1.277-.132-2.004-.617-.726-.485-.726-1.52 0-1.014.704-1.499.705-.484 1.696-.595.99-.11 2.554-.11t2.553.11 1.695.595q.727.485.727 1.499 0 1.035-.749 1.52-.726.485-2.025.617.11 1.212.11 3.438a43 43 0 0 1-.132 3.657m9.9 4.011a9.8 9.8 0 0 1-2.795-.397q-1.321-.418-2.158-1.145-.837-.75-.837-1.697 0-.903.55-1.433.552-.528 1.388-.528.55 0 .947.154.418.132.902.396.352.176.595.287.264.088.55.088.726 0 .727-.573 0-.22-.309-.374-.308-.177-1.034-.463-1.298-.507-2.114-.992-1.255-.75-1.74-1.63-.461-.882-.462-2.204 0-1.278.815-2.402.814-1.145 2.224-1.829 1.408-.683 3.082-.683 1.63 0 2.972.507 1.365.484 2.135 1.366.793.86.793 1.917 0 1.212-.726 1.83-.704.594-1.586.594-.725 0-1.1-.088a4.5 4.5 0 0 1-.705-.242 3.5 3.5 0 0 0-.484-.155 1.8 1.8 0 0 0-.55-.066.9.9 0 0 0-.551.198.59.59 0 0 0-.242.507q0 .243.286.419.286.154.66.287t.529.198q2.047.75 3.016 1.719.969.947.969 2.468 0 1.872-1.52 2.93-1.496 1.035-4.226 1.036m16.202-7.58q1.959.904 3.324 2.181 1.387 1.278 1.387 2.777 0 1.322-.726 1.961-.727.639-1.784.639-1.518 0-2.862-1.388-1.32-1.41-2.553-3.68 0 1.565-.177 2.622-.153 1.058-.704 1.763-.55.683-1.651.683-1.145 0-1.695-.86-.53-.859-.66-2.07-.111-1.213-.111-3.174 0-1.388.022-3.283.045-1.917.088-2.38.044-1.653.683-2.644.638-1.014 1.805-1.014 1.343 0 1.871 1.146.55 1.146.55 3.504v.66a19 19 0 0 1 2.598-3.635q1.476-1.61 2.951-1.609 1.033 0 1.695.793.682.772.682 1.918 0 1.542-1.321 2.952-1.299 1.389-3.412 2.138M57.497 49.242a7 7 0 0 1-3.72-.993 7.74 7.74 0 0 1-2.729-2.78q-1.013-1.79-1.056-3.95a7.55 7.55 0 0 1 .968-3.84 7.46 7.46 0 0 1 2.73-2.803 7.2 7.2 0 0 1 3.807-1.059 6.95 6.95 0 0 1 3.742 1.015 7.53 7.53 0 0 1 2.75 2.847q1.014 1.809 1.013 3.994a7.3 7.3 0 0 1-1.012 3.773 7.56 7.56 0 0 1-2.751 2.736 7.55 7.55 0 0 1-3.742 1.06m.066-4.303q1.012 0 1.717-.729.726-.728.704-1.897 0-1.193-.704-1.92a2.3 2.3 0 0 0-1.717-.728q-1.012 0-1.717.728-.704.727-.704 1.92 0 1.17.704 1.897.705.728 1.717.728M74.25 49.22q-2.114 0-3.94-1.876t-2.906-4.59q-1.078-2.736-1.078-5.075 0-1.7.748-2.78.75-1.104 2.223-1.104 1.211 0 1.981.927.793.927 1.233 2.273.44 1.323.946 3.486.462 2.03.792 3.001.287-.684.55-1.633.265-.949.485-1.875.505-2.03.924-3.266.44-1.236 1.145-2.075.704-.838 1.782-.838 1.475 0 2.223 1.06.75 1.058.749 2.824 0 2.338-1.057 5.075-1.056 2.715-2.883 4.59-1.805 1.875-3.918 1.875m16.669.023a7 7 0 0 1-3.72-.993 7.74 7.74 0 0 1-2.73-2.78q-1.011-1.79-1.056-3.95a7.55 7.55 0 0 1 .969-3.84 7.46 7.46 0 0 1 2.729-2.803 7.2 7.2 0 0 1 3.808-1.059 6.95 6.95 0 0 1 3.741 1.015 7.53 7.53 0 0 1 2.751 2.847q1.013 1.809 1.013 3.994a7.3 7.3 0 0 1-1.013 3.773 7.56 7.56 0 0 1-2.75 2.736 7.55 7.55 0 0 1-3.742 1.06m.066-4.303q1.013 0 1.716-.729.727-.728.705-1.897 0-1.193-.705-1.92a2.3 2.3 0 0 0-1.716-.728q-1.013 0-1.717.728-.704.727-.704 1.92 0 1.17.704 1.897.705.728 1.717.728m14.787 4.304q-1.452 0-2.795-.398-1.32-.42-2.157-1.147-.836-.75-.836-1.7 0-.903.55-1.434t1.387-.53q.55 0 .946.155.418.132.903.397.351.177.594.287.264.09.55.089.726 0 .726-.574 0-.22-.308-.375-.308-.177-1.034-.464-1.299-.507-2.113-.993-1.254-.75-1.739-1.633-.462-.882-.462-2.206 0-1.28.814-2.406.815-1.147 2.223-1.831t3.082-.684q1.628 0 2.971.507 1.364.486 2.135 1.369.792.86.792 1.92 0 1.213-.726 1.83-.705.597-1.585.597-.726 0-1.1-.089a4.5 4.5 0 0 1-.705-.242 3.5 3.5 0 0 0-.484-.155 1.8 1.8 0 0 0-.55-.066.9.9 0 0 0-.55.199.59.59 0 0 0-.242.507q0 .243.286.42.285.154.66.286.373.133.528.199 2.047.75 3.015 1.721.969.949.969 2.471 0 1.876-1.519 2.935-1.497 1.038-4.226 1.038"/></svg>